<?xml version="1.0" encoding="UTF-8"?>
<svg id="Layer_1" data-name="Layer 1" xmlns="http://www.w3.org/2000/svg" viewBox="0 0 800 800">
  <defs>
    <style>
      .cls-1 {
        stroke-width: 29.2px;
      }

      .cls-1, .cls-2 {
        fill: none;
        stroke: #000;
        stroke-miterlimit: 10;
      }

      .cls-2 {
        stroke-linecap: round;
        stroke-width: 25.94px;
      }
    </style>
  </defs>
  <path class="cls-1" d="m238.64,554.6h-27.44c-4.41,0-7.53-4.3-6.16-8.49,10.71-32.86,21.43-65.71,32.14-98.57.87-2.67,3.36-4.47,6.16-4.47h228.17s86.37,0,86.37,0c2.81,0,5.29,1.81,6.16,4.47,10.71,32.86,21.43,65.71,32.14,98.57,1.37,4.19-1.76,8.49-6.16,8.49h-118.51c-77.63,0-155.25,0-232.88,0Z"/>
  <path class="cls-1" d="m334.28,443.07v-215.07c0-7.16,5.81-12.97,12.97-12.97h106.74c7.16,0,12.97,5.81,12.97,12.97v215.07"/>
  <path class="cls-2" d="m283.29,606.08c-7.02,19.41-20.69,49.61-47.33,79.45-32.19,36.07-67.67,54.08-87.91,62.55"/>
  <path class="cls-2" d="m516.71,605.09c7.02,19.41,20.69,49.61,47.33,79.45,32.19,36.07,67.67,54.08,87.91,62.55"/>
  <path class="cls-2" d="m352.6,607.77c-.33,13.27-2.79,39.6-18.6,67.62-13.3,23.59-30.26,38.09-40.57,45.64"/>
  <path class="cls-2" d="m441.6,607.79c.33,13.27,2.79,39.6,18.6,67.62,13.3,23.59,30.26,38.09,40.57,45.64"/>
</svg>