<?xml version="1.0" encoding="UTF-8"?>
<svg id="Layer_1" data-name="Layer 1" xmlns="http://www.w3.org/2000/svg" viewBox="0 0 50 50">
  <defs>
    <style>
      .cls-1 {
        stroke-width: 1.19px;
      }

      .cls-1, .cls-2 {
        stroke: #000;
        stroke-miterlimit: 10;
      }

      .cls-2 {
        fill: none;
        stroke-width: 3.56px;
      }
    </style>
  </defs>
  <g>
    <path class="cls-1" d="m40.06,23.62v4.41H11.33c-.73-2.84-.64-2.5-1.39-5.33,6.47-3.76,13.02-2.69,19.86-1.49,2.97.52,6.01,1.07,9.13,1.24.63.04,1.13.55,1.13,1.17Z"/>
    <path class="cls-1" d="m29.87,21.29c-2.11-3.44-4.23-6.88-6.34-10.32-.22-.35-.6-.56-1.01-.56h-7.2c1.81,3.19,3.62,6.39,5.43,9.58"/>
  </g>
  <g>
    <g>
      <polygon points="15.31 30.3 11.46 35.14 19.17 35.14 15.31 30.3"/>
      <path class="cls-2" d="m15.31,33.61c0,1.27,0,1.63,0,2.9,0,2.38,0,5.68,0,8.06"/>
    </g>
    <g>
      <polygon points="25.06 30.3 21.21 35.14 28.92 35.14 25.06 30.3"/>
      <path class="cls-2" d="m25.06,33.61c0,1.27,0,1.63,0,2.9,0,2.38,0,5.68,0,8.06"/>
    </g>
    <g>
      <polygon points="34.69 30.3 30.83 35.14 38.54 35.14 34.69 30.3"/>
      <path class="cls-2" d="m34.69,33.61c0,1.27,0,1.63,0,2.9,0,2.38,0,5.68,0,8.06"/>
    </g>
  </g>
</svg>