<?xml version="1.0" encoding="UTF-8"?>
<svg id="Layer_1" data-name="Layer 1" xmlns="http://www.w3.org/2000/svg" viewBox="0 0 50 50">
  <defs>
    <style>
      .cls-1 {
        fill: none;
        stroke: #000;
        stroke-miterlimit: 10;
        stroke-width: 1.91px;
      }
    </style>
  </defs>
  <path d="m35.56,27.51l-2.14-6.12c-.82-2.34-3.03-3.91-5.51-3.91h-11.03c-2.48,0-4.69,1.57-5.51,3.91l-2.14,6.12c-1.41.58-2.41,1.97-2.41,3.6v11.68c0,1.08.87,1.95,1.95,1.95h1.94c1.08,0,1.95-.87,1.95-1.95v-2.92h19.47v2.92c0,1.08.87,1.95,1.94,1.95h1.95c1.08,0,1.95-.87,1.95-1.95v-11.68c0-1.63-1-3.02-2.41-3.6Zm-20.52-4.83c.28-.78,1.01-1.3,1.84-1.3h11.03c.82,0,1.56.52,1.83,1.3l1.59,4.54H13.46l1.58-4.54Zm-2.38,12.32c-1.08,0-1.95-.87-1.95-1.94s.87-1.95,1.95-1.95,1.95.87,1.95,1.95-.88,1.94-1.95,1.94Zm19.47,0c-1.08,0-1.95-.87-1.95-1.94s.87-1.95,1.95-1.95,1.94.87,1.94,1.95-.87,1.94-1.94,1.94Z"/>
  <polyline class="cls-1" points="40.39 44.52 40.39 21.13 40.39 19.15"/>
  <path class="cls-1" d="m36.96,14.61H5.33c-.51,0-.93.42-.93.93v28.98"/>
  <path d="m39.83,8.84c0-.29.05-.57.15-.83.1-.26.3-.39.58-.39s.47.13.57.39c.1.26.15.54.15.83,0,.87-.24,1.31-.72,1.31s-.73-.44-.73-1.31Z"/>
  <path d="m41.14,12.99c.11.24.17.56.17.98v1.26c0,.81-.25,1.21-.75,1.21-.06,0-.11-.01-.17-.02-.39-.08-.58-.48-.58-1.19v-1.26c0-.42.06-.74.16-.98.1-.23.3-.35.59-.35.27,0,.47.12.58.35Z"/>
  <path d="m40.39,2.93c-5.03,0-9.1,4.08-9.1,9.1,0,.89.13,1.76.37,2.58,1.11,3.77,4.6,6.52,8.73,6.52,5.02,0,9.09-4.08,9.09-9.1s-4.07-9.1-9.09-9.1Zm3.76,11.98c0,1.35-.28,2.4-.83,3.14s-1.47,1.11-2.76,1.11c-.06,0-.12,0-.17-.01-1.21-.02-2.07-.39-2.6-1.1-.55-.74-.83-1.79-.83-3.14v-.92c0-.69.09-1.26.25-1.69.17-.43.48-.76.92-.99-.42-.18-.72-.46-.89-.87-.18-.4-.27-.9-.27-1.5v-.36c0-1.22.31-2.11.92-2.66.61-.56,1.5-.83,2.67-.83s2.09.28,2.68.85c.6.57.89,1.49.89,2.75,0,.66-.07,1.22-.23,1.66-.16.45-.47.77-.93.97.49.26.82.59.96,1.01.15.41.22.97.22,1.66v.92Z"/>
</svg>