<?xml version="1.0" encoding="UTF-8"?>
<svg id="Layer_1" data-name="Layer 1" xmlns="http://www.w3.org/2000/svg" viewBox="0 0 800 800">
  <defs>
    <style>
      .cls-1 {
        fill: #fff;
        font-family: Anton-Regular, Anton;
        font-size: 280px;
      }

      .cls-2 {
        fill: none;
        stroke: #000;
        stroke-miterlimit: 10;
        stroke-width: 29.01px;
      }
    </style>
  </defs>
  <g>
    <circle cx="628.41" cy="226.31" r="163.69"/>
    <g>
      <path d="m211.98,386.73l-25.24,72.14h284.12l-25.24-72.14c-4.35-12.38-16.05-20.7-29.21-20.7h-175.23c-13.15,0-24.85,8.32-29.21,20.7Zm-92.45,76.78l34.04-97.19c13.06-37.23,48.16-62.18,87.62-62.18h175.23c39.46,0,74.56,24.95,87.62,62.18l34.04,97.19c22.44,9.28,38.3,31.43,38.3,57.25v185.68c0,17.12-13.83,30.95-30.95,30.95h-30.95c-17.12,0-30.95-13.83-30.95-30.95v-46.42H174.07v46.42c0,17.12-13.83,30.95-30.95,30.95h-30.95c-17.12,0-30.95-13.83-30.95-30.95v-185.68c0-25.82,15.86-47.97,38.3-57.25Zm85.49,88.2c0-17.09-13.85-30.95-30.95-30.95s-30.95,13.85-30.95,30.95,13.85,30.95,30.95,30.95,30.95-13.85,30.95-30.95Zm278.51,30.95c17.09,0,30.95-13.85,30.95-30.95s-13.85-30.95-30.95-30.95-30.95,13.85-30.95,30.95,13.85,30.95,30.95,30.95Z"/>
      <path class="cls-2" d="m633.7,737.38v-463.68c0-10.68-8.66-19.34-19.34-19.34H43.24c-10.68,0-19.34,8.66-19.34,19.34v463.68"/>
    </g>
  </g>
  <text class="cls-1" transform="translate(579.61 345.27)"><tspan x="0" y="0">1</tspan></text>
</svg>