<?xml version="1.0" encoding="UTF-8"?>
<svg id="Layer_1" data-name="Layer 1" xmlns="http://www.w3.org/2000/svg" viewBox="0 0 50 50">
  <defs>
    <style>
      .cls-1 {
        fill: none;
        stroke: #000;
        stroke-miterlimit: 10;
        stroke-width: 1.91px;
      }
    </style>
  </defs>
  <path d="m35.56,27.51l-2.14-6.12c-.82-2.34-3.03-3.91-5.51-3.91h-11.03c-2.48,0-4.69,1.57-5.51,3.91l-2.14,6.12c-1.41.58-2.41,1.97-2.41,3.6v11.68c0,1.08.87,1.95,1.95,1.95h1.94c1.08,0,1.95-.87,1.95-1.95v-2.92h19.47v2.92c0,1.08.87,1.95,1.94,1.95h1.95c1.08,0,1.95-.87,1.95-1.95v-11.68c0-1.63-1-3.02-2.41-3.6Zm-20.52-4.83c.28-.78,1.01-1.3,1.84-1.3h11.03c.82,0,1.56.52,1.83,1.3l1.59,4.54H13.46l1.58-4.54Zm-2.38,12.32c-1.08,0-1.95-.87-1.95-1.94s.87-1.95,1.95-1.95,1.95.87,1.95,1.95-.88,1.94-1.95,1.94Zm19.47,0c-1.08,0-1.95-.87-1.95-1.94s.87-1.95,1.95-1.95,1.94.87,1.94,1.95-.87,1.94-1.94,1.94Z"/>
  <polyline class="cls-1" points="40.39 18.27 40.39 21.13 40.39 44.52"/>
  <path class="cls-1" d="m37.07,14.61H5.33c-.51,0-.93.42-.93.93v28.98"/>
  <path d="m40.39,2.93c-5.03,0-9.1,4.08-9.1,9.1,0,.89.13,1.76.37,2.58,1.11,3.77,4.6,6.52,8.73,6.52,5.02,0,9.09-4.08,9.09-9.1s-4.07-9.1-9.09-9.1Zm-.01,12.49c-.06.08-.11.17-.15.26h3.75v2.59h-7.13v-.65c0-.69.1-1.3.32-1.84.16-.42.35-.8.58-1.17.07-.12.15-.24.23-.35.33-.46.69-.92,1.06-1.37.36-.44.7-.89,1.02-1.35.33-.46.59-.96.8-1.5.21-.54.31-1.14.31-1.81,0-.33-.05-.6-.15-.84-.09-.23-.29-.34-.59-.34-.46,0-.69.41-.69,1.22v1.68h-2.89c0-.12,0-.25-.02-.4s-.01-.3-.01-.44c0-.99.1-1.83.31-2.52s.58-1.22,1.11-1.58c.52-.36,1.27-.54,2.23-.54,1.14,0,2.02.32,2.66.96.63.64.95,1.55.95,2.74,0,.81-.11,1.52-.32,2.12-.21.61-.48,1.16-.83,1.66-.34.5-.72.99-1.13,1.49-.29.35-.57.7-.85,1.07-.21.28-.41.59-.57.91Z"/>
</svg>