<?xml version="1.0" encoding="UTF-8"?>
<svg id="Layer_1" data-name="Layer 1" xmlns="http://www.w3.org/2000/svg" viewBox="0 0 50 50">
  <defs>
    <style>
      .cls-1 {
        fill: none;
        stroke: #000;
        stroke-miterlimit: 10;
        stroke-width: 1.91px;
      }
    </style>
  </defs>
  <path d="m15.04,22.68l-1.59,4.54h17.87l-1.59-4.54c-.27-.78-1.01-1.3-1.84-1.3h-11.02c-.83,0-1.56.52-1.84,1.3Zm-5.82,4.83l2.14-6.11c.82-2.34,3.03-3.91,5.51-3.91h11.02c2.48,0,4.69,1.57,5.51,3.91l2.14,6.11c1.41.58,2.41,1.98,2.41,3.6v11.68c0,1.08-.87,1.95-1.95,1.95h-1.95c-1.08,0-1.95-.87-1.95-1.95v-2.92H12.66v2.92c0,1.08-.87,1.95-1.95,1.95h-1.95c-1.08,0-1.95-.87-1.95-1.95v-11.68c0-1.62,1-3.02,2.41-3.6Zm5.38,5.55c0-1.08-.87-1.95-1.95-1.95s-1.95.87-1.95,1.95.87,1.95,1.95,1.95,1.95-.87,1.95-1.95Zm17.52,1.95c1.08,0,1.95-.87,1.95-1.95s-.87-1.95-1.95-1.95-1.95.87-1.95,1.95.87,1.95,1.95,1.95Z"/>
  <polyline class="cls-1" points="40.39 44.52 40.39 21.13 40.39 19.02"/>
  <path class="cls-1" d="m36.94,14.61H5.33c-.51,0-.93.42-.93.93v28.98"/>
  <path d="m40.39,2.93c-5.03,0-9.1,4.08-9.1,9.1,0,.89.13,1.76.37,2.58,1.11,3.77,4.6,6.52,8.73,6.52,5.02,0,9.09-4.08,9.09-9.1s-4.07-9.1-9.09-9.1Zm2.89,14.97c-.58.75-1.53,1.12-2.86,1.12h-.03c-1.2,0-2.07-.33-2.62-.96-.56-.64-.83-1.61-.83-2.9v-1.44h2.82v1.45c0,.36.04.67.14.92.08.22.24.34.49.37.03.01.08.01.12.01.32,0,.53-.14.62-.41.08-.27.13-.72.13-1.34v-.34c0-.48-.08-.89-.24-1.25-.16-.35-.47-.53-.93-.53-.06,0-.11,0-.16.01-.04,0-.08,0-.11.01v-2.47c.47,0,.84-.11,1.09-.32.25-.21.37-.56.37-1.06,0-.77-.22-1.16-.67-1.16-.29,0-.49.11-.59.34-.1.23-.15.52-.15.86v.42h-2.85c0-.06,0-.14-.01-.23v-.26c0-1.26.29-2.18.88-2.77s1.49-.88,2.7-.88c2.35,0,3.52,1.22,3.52,3.65,0,.68-.09,1.24-.27,1.68-.19.44-.52.75-1.02.93.39.18.68.42.87.71.19.3.31.66.37,1.09.05.43.08.96.08,1.57,0,1.38-.29,2.44-.86,3.18Z"/>
</svg>