<?xml version="1.0" encoding="UTF-8"?>
<svg id="Layer_1" data-name="Layer 1" xmlns="http://www.w3.org/2000/svg" viewBox="0 0 50 50">
  <defs>
    <style>
      .cls-1 {
        stroke-width: 1.91px;
      }

      .cls-1, .cls-2 {
        fill: none;
        stroke: #000;
        stroke-miterlimit: 10;
      }

      .cls-2 {
        stroke-width: 1.89px;
      }
    </style>
  </defs>
  <path d="m35.56,27.51l-2.14-6.12c-.82-2.34-3.03-3.91-5.51-3.91h-11.03c-2.48,0-4.69,1.57-5.51,3.91l-2.14,6.12c-1.41.58-2.41,1.97-2.41,3.6v11.68c0,1.08.87,1.95,1.95,1.95h1.94c1.08,0,1.95-.87,1.95-1.95v-2.92h19.47v2.92c0,1.08.87,1.95,1.94,1.95h1.95c1.08,0,1.95-.87,1.95-1.95v-11.68c0-1.63-1-3.02-2.41-3.6Zm-20.52-4.83c.28-.78,1.01-1.3,1.84-1.3h11.03c.82,0,1.56.52,1.83,1.3l1.59,4.54H13.46l1.58-4.54Zm-2.38,12.32c-1.08,0-1.95-.87-1.95-1.94s.87-1.95,1.95-1.95,1.95.87,1.95,1.95-.88,1.94-1.95,1.94Zm19.47,0c-1.08,0-1.95-.87-1.95-1.94s.87-1.95,1.95-1.95,1.94.87,1.94,1.95-.87,1.94-1.94,1.94Z"/>
  <path class="cls-1" d="m37.04,14.61H5.33c-.51,0-.93.42-.93.93v28.98"/>
  <path d="m40.39,2.93c-5.03,0-9.1,4.08-9.1,9.1,0,.89.13,1.76.37,2.58,1.11,3.77,4.6,6.52,8.73,6.52,5.02,0,9.09-4.08,9.09-9.1s-4.07-9.1-9.09-9.1Zm3.8,12.95c-.09.66-.26,1.23-.51,1.71-.25.47-.62.83-1.11,1.09-.49.25-1.13.38-1.93.38-.08,0-.17,0-.25-.01-.95-.03-1.72-.3-2.34-.78-.67-.52-1.01-1.33-1.01-2.41v-2.05h2.86v1.18c0,.25.02.49.05.71.02.23.09.42.19.57.06.08.15.14.25.18.07.03.16.04.25.04.29,0,.49-.1.58-.3.1-.21.14-.46.14-.77v-2.71c0-.22-.01-.44-.04-.66-.03-.22-.09-.4-.19-.55-.1-.14-.26-.22-.48-.22-.52,0-.78.38-.78,1.14h-2.52v-7.32h6.55v2.58h-3.94v1.94c.13-.17.32-.31.55-.44s.5-.19.81-.19c.63,0,1.14.12,1.53.36.4.23.7.57.91,1,.21.42.35.92.44,1.48.08.56.12,1.17.12,1.81,0,.83-.05,1.58-.13,2.24Z"/>
  <polyline class="cls-2" points="40.34 44.52 40.34 21.48 40.34 19.37"/>
</svg>