<?xml version="1.0" encoding="UTF-8"?>
<svg id="Layer_1" data-name="Layer 1" xmlns="http://www.w3.org/2000/svg" viewBox="0 0 50 50">
  <defs>
    <style>
      .cls-1 {
        fill: none;
        stroke: #000;
        stroke-miterlimit: 10;
        stroke-width: 1.91px;
      }
    </style>
  </defs>
  <path d="m35.56,27.51l-2.14-6.12c-.82-2.34-3.03-3.91-5.51-3.91h-11.03c-2.48,0-4.69,1.57-5.51,3.91l-2.14,6.12c-1.41.58-2.41,1.97-2.41,3.6v11.68c0,1.08.87,1.95,1.95,1.95h1.94c1.08,0,1.95-.87,1.95-1.95v-2.92h19.47v2.92c0,1.08.87,1.95,1.94,1.95h1.95c1.08,0,1.95-.87,1.95-1.95v-11.68c0-1.63-1-3.02-2.41-3.6Zm-20.52-4.83c.28-.78,1.01-1.3,1.84-1.3h11.03c.82,0,1.56.52,1.83,1.3l1.59,4.54H13.46l1.58-4.54Zm-2.38,12.32c-1.08,0-1.95-.87-1.95-1.94s.87-1.95,1.95-1.95,1.95.87,1.95,1.95-.88,1.94-1.95,1.94Zm19.47,0c-1.08,0-1.95-.87-1.95-1.94s.87-1.95,1.95-1.95,1.94.87,1.94,1.95-.87,1.94-1.94,1.94Z"/>
  <polyline class="cls-1" points="40.39 44.52 40.39 21.13 40.39 18.85"/>
  <path class="cls-1" d="m39.33,14.61H5.33c-.51,0-.93.42-.93.93v28.98"/>
  <path d="m40.39,2.93c-5.03,0-9.1,4.08-9.1,9.1,0,.89.13,1.76.37,2.58,1.11,3.77,4.6,6.52,8.73,6.52,5.02,0,9.09-4.08,9.09-9.1s-4.07-9.1-9.09-9.1Zm1.85,15.92h-2.91v-10.59c-.19.22-.45.41-.77.54-.33.14-.64.21-.93.21v-2.2c.27-.04.57-.13.89-.27.31-.13.61-.32.88-.57.28-.24.49-.53.63-.87h2.21v13.75Z"/>
</svg>