<?xml version="1.0" encoding="UTF-8"?>
<svg id="Layer_1" data-name="Layer 1" xmlns="http://www.w3.org/2000/svg" viewBox="0 0 50 50">
  <defs>
    <style>
      .cls-1 {
        fill: none;
        stroke: #000;
        stroke-miterlimit: 10;
        stroke-width: 1.91px;
      }
    </style>
  </defs>
  <path d="m15.04,22.68l-1.59,4.54h17.87l-1.59-4.54c-.27-.78-1.01-1.3-1.84-1.3h-11.02c-.83,0-1.56.52-1.84,1.3Zm-5.82,4.83l2.14-6.11c.82-2.34,3.03-3.91,5.51-3.91h11.02c2.48,0,4.69,1.57,5.51,3.91l2.14,6.11c1.41.58,2.41,1.98,2.41,3.6v11.68c0,1.08-.87,1.95-1.95,1.95h-1.95c-1.08,0-1.95-.87-1.95-1.95v-2.92H12.66v2.92c0,1.08-.87,1.95-1.95,1.95h-1.95c-1.08,0-1.95-.87-1.95-1.95v-11.68c0-1.62,1-3.02,2.41-3.6Zm5.38,5.55c0-1.08-.87-1.95-1.95-1.95s-1.95.87-1.95,1.95.87,1.95,1.95,1.95,1.95-.87,1.95-1.95Zm17.52,1.95c1.08,0,1.95-.87,1.95-1.95s-.87-1.95-1.95-1.95-1.95.87-1.95,1.95.87,1.95,1.95,1.95Z"/>
  <polyline class="cls-1" points="40.39 44.52 40.39 21.13 40.39 18.99"/>
  <path class="cls-1" d="m36.79,14.61H5.33c-.51,0-.93.42-.93.93v28.98"/>
  <path d="m41.07,13.88v1.11c0,.43-.03.78-.09,1.05-.06.28-.26.41-.58.41h-.01c-.45-.01-.68-.34-.68-1.01v-1.7c0-.66.24-.98.73-.98.42,0,.63.37.63,1.12Z"/>
  <path d="m40.39,2.93c-5.03,0-9.1,4.08-9.1,9.1,0,.89.13,1.76.37,2.58,1.11,3.77,4.6,6.52,8.73,6.52,5.02,0,9.09-4.08,9.09-9.1s-4.07-9.1-9.09-9.1Zm3.36,13.89c-.22.68-.6,1.22-1.12,1.6s-1.23.57-2.13.57h-.11c-.9-.01-1.61-.18-2.13-.49-.54-.33-.92-.82-1.14-1.48-.22-.64-.33-1.45-.33-2.41v-3.76c0-.95.04-1.79.12-2.52.08-.73.25-1.34.51-1.84.25-.49.63-.87,1.14-1.12.5-.26,1.18-.38,2.02-.38.58,0,1.12.1,1.62.3s.9.5,1.21.9c.3.39.46.89.46,1.49v1.49h-2.65v-.29c0-.22,0-.45-.04-.68-.02-.23-.08-.42-.17-.57-.09-.15-.25-.23-.48-.23-.31,0-.52.08-.64.25-.12.17-.18.42-.18.73v2.76c.13-.24.33-.44.59-.59s.58-.22.95-.22c.76,0,1.35.15,1.75.46.41.3.7.76.85,1.36.16.6.24,1.36.24,2.27s-.12,1.71-.34,2.4Z"/>
</svg>