<?xml version="1.0" encoding="UTF-8"?>
<svg id="Layer_1" data-name="Layer 1" xmlns="http://www.w3.org/2000/svg" viewBox="0 0 50 50">
  <defs>
    <style>
      .cls-1 {
        fill: #85c7f2;
      }
    </style>
  </defs>
  <path class="cls-1" d="m32.65,40.1c-2.09,3.11-5.65,5.17-9.69,5.17-6.43,0-11.65-5.22-11.65-11.65s11.65-25,11.65-25c0,0,1.13,1.79,2.68,4.45-.77.73-1.33,1.65-1.7,2.78-.46,1.41-.69,3.07-.69,4.96s.16,3.43.48,4.67c.32,1.25.91,2.19,1.76,2.82.85.62,2.05.94,3.61.94.77,0,1.43-.16,1.97-.47.53-.31.94-.71,1.21-1.21v5.69c0,.66-.13,1.16-.38,1.51-.24.35-.68.53-1.32.53-.45,0-.77-.16-.97-.47s-.33-.71-.37-1.18c-.05-.47-.08-.95-.08-1.42v-.58h-5.46v3.06c0,1.23.31,2.26.95,3.08.63.83,1.47,1.45,2.5,1.87,1.03.41,2.14.62,3.34.62.79,0,1.51-.06,2.16-.17Z"/>
  <path d="m37.62,15.41c-.46-1.35-1.24-2.36-2.35-3.03-1.1-.67-2.65-1-4.62-1-1.85,0-3.32.39-4.4,1.17-.22.16-.42.33-.61.52-.77.73-1.33,1.65-1.7,2.78-.46,1.41-.69,3.07-.69,4.96s.16,3.43.48,4.67c.32,1.25.91,2.19,1.76,2.82.85.62,2.05.94,3.61.94.77,0,1.43-.16,1.97-.47.53-.31.94-.71,1.21-1.21v5.69c0,.66-.13,1.16-.38,1.51-.24.35-.68.53-1.32.53-.45,0-.77-.16-.97-.47s-.33-.71-.37-1.18c-.05-.47-.08-.95-.08-1.42v-.58h-5.46v3.06c0,1.23.31,2.26.95,3.08.63.83,1.47,1.45,2.5,1.87,1.03.41,2.14.62,3.34.62.79,0,1.51-.06,2.16-.17.77-.13,1.44-.34,2.01-.62,1.04-.53,1.83-1.3,2.36-2.32.52-1.03.87-2.29,1.03-3.79.17-1.51.25-3.24.25-5.21v-7.68c0-2.03-.22-3.72-.68-5.07Zm-6.84,8.81c-.87,0-1.31-.77-1.31-2.32v-2.29c0-.88.06-1.6.19-2.16.13-.57.53-.85,1.2-.85.94,0,1.42.7,1.42,2.09v3.52c0,.97-.26,1.59-.79,1.85-.2.11-.43.16-.71.16Z"/>
</svg>