<?xml version="1.0" encoding="UTF-8"?>
<svg id="Layer_1" data-name="Layer 1" xmlns="http://www.w3.org/2000/svg" viewBox="0 0 50 50">
  <defs>
    <style>
      .cls-1 {
        fill: #85c7f2;
      }
    </style>
  </defs>
  <path class="cls-1" d="m33.74,38.07c-1.75,4.22-5.92,7.2-10.78,7.2-6.43,0-11.65-5.22-11.65-11.65s11.65-25,11.65-25c0,0,.96,1.52,2.32,3.84-.23.36-.51.68-.83.97-.57.5-1.18.89-1.83,1.18-.66.28-1.27.47-1.84.55v4.53c.6,0,1.24-.14,1.92-.42.68-.29,1.21-.66,1.59-1.12v21.86h6.02v-18.39c.57,1.15,1.13,2.3,1.63,3.42v7.41c0,2.41.59,4.29,1.8,5.62Z"/>
  <g>
    <path d="m30.31,11.62v28.39h-6.02v-21.86c-.38.46-.91.83-1.59,1.12-.68.28-1.32.42-1.92.42v-4.53c.57-.08,1.18-.27,1.84-.55.65-.29,1.26-.68,1.83-1.18.32-.29.6-.61.83-.97.19-.26.34-.54.47-.84h4.56Z"/>
    <path d="m45.11,13.51c-1.24-1.42-3.12-2.13-5.66-2.13s-4.41.71-5.65,2.13c-1.24,1.43-1.86,3.47-1.86,6.14v12.8c0,2.41.59,4.29,1.8,5.62.04.06.09.12.15.18,1.31,1.34,3.16,2.02,5.56,2.02s4.26-.68,5.56-2.02c1.3-1.34,1.95-3.28,1.95-5.8v-12.8c0-2.67-.62-4.71-1.85-6.14Zm-4.26,19.6c0,.49-.12.94-.37,1.34-.25.39-.59.59-1.03.59s-.77-.2-1.03-.59c-.25-.4-.37-.85-.37-1.34v-14.01c0-.67.07-1.25.21-1.75.15-.5.54-.75,1.19-.75s1.04.25,1.18.75c.15.5.22,1.08.22,1.75v14.01Z"/>
  </g>
</svg>