<?xml version="1.0" encoding="UTF-8"?>
<svg id="Layer_1" data-name="Layer 1" xmlns="http://www.w3.org/2000/svg" viewBox="0 0 50 50">
  <defs>
    <style>
      .cls-1 {
        fill: #00a3d7;
      }
    </style>
  </defs>
  <path class="cls-1" d="m34.62,33.62c0,6.43-5.22,11.65-11.66,11.65s-11.65-5.22-11.65-11.65,11.65-25,11.65-25c0,0,.73,1.16,1.82,3h-1.28v5.25h4.29c.7,1.26,1.41,2.59,2.11,3.93-.68,1.63-1.38,3.41-2.11,5.35-.74,1.98-1.39,4.13-1.96,6.43-.57,2.3-.94,4.77-1.12,7.41h6.42c.18-2.95.67-5.93,1.46-8.94.23-.88.49-1.76.76-2.64.78,2.07,1.27,3.89,1.27,5.21Z"/>
  <path d="m37.82,11.62v3.09c0,1.14-.19,2.29-.56,3.45-.38,1.16-.87,2.44-1.49,3.84-.94,2.14-1.75,4.28-2.42,6.41-.27.88-.53,1.76-.76,2.64-.79,3.01-1.28,5.99-1.46,8.94h-6.42c.18-2.64.55-5.11,1.12-7.41.57-2.3,1.22-4.45,1.96-6.43.73-1.94,1.43-3.72,2.11-5.35,0-.04.03-.07.04-.11l1.58-3.82h-8.02v-5.25h14.32Z"/>
</svg>