<?xml version="1.0" encoding="UTF-8"?>
<svg id="Layer_1" data-name="Layer 1" xmlns="http://www.w3.org/2000/svg" viewBox="0 0 50 50">
  <defs>
    <style>
      .cls-1 {
        fill: #85c7f2;
      }
    </style>
  </defs>
  <path class="cls-1" d="m32.64,40.13c-2.1,3.1-5.65,5.14-9.68,5.14-6.43,0-11.65-5.22-11.65-11.65s11.65-25,11.65-25c0,0,1.02,1.62,2.45,4.07-.13.09-.26.2-.38.31-1.27,1.14-1.9,2.97-1.9,5.49v.74c0,1.23.19,2.27.55,3.1.37.83.99,1.43,1.86,1.78-.93.47-1.56,1.16-1.91,2.05-.34.89-.51,2.06-.51,3.5v1.88c0,2.8.57,4.96,1.71,6.49,1.14,1.52,3.04,2.29,5.7,2.29.77,0,1.47-.06,2.11-.19Z"/>
  <path d="m37.5,26.22c-.3-.86-.96-1.55-1.98-2.08.95-.4,1.59-1.07,1.91-1.99.33-.93.49-2.07.49-3.44,0-2.6-.61-4.49-1.84-5.67-1.23-1.17-3.07-1.76-5.55-1.76-2.17,0-3.88.47-5.12,1.41-.13.09-.26.2-.38.31-1.27,1.14-1.9,2.97-1.9,5.49v.74c0,1.23.19,2.27.55,3.1.37.83.99,1.43,1.86,1.78-.93.47-1.56,1.16-1.91,2.05-.34.89-.51,2.06-.51,3.5v1.88c0,2.8.57,4.96,1.71,6.49,1.14,1.52,3.04,2.29,5.7,2.29.77,0,1.47-.06,2.11-.19,1.59-.31,2.79-1.02,3.6-2.1,1.14-1.53,1.71-3.69,1.71-6.49v-1.88c0-1.44-.15-2.59-.45-3.44Zm-8.47-7.2c0-.6.11-1.17.32-1.71.21-.54.6-.81,1.18-.81s.98.27,1.19.81c.21.54.31,1.11.31,1.71,0,1.8-.5,2.71-1.5,2.71-.06,0-.12,0-.17-.01-.86-.1-1.3-.96-1.33-2.56v-.14Zm3.05,13.19c0,1.66-.51,2.49-1.55,2.49s-1.53-.83-1.53-2.49v-2.6c0-.86.11-1.53.33-2.02.21-.48.61-.72,1.2-.72s.97.24,1.21.72c.23.49.34,1.16.34,2.02v2.6Z"/>
</svg>