<?xml version="1.0" encoding="UTF-8"?>
<svg id="Layer_1" data-name="Layer 1" xmlns="http://www.w3.org/2000/svg" viewBox="0 0 50 50">
  <defs>
    <style>
      .cls-1 {
        fill: #00a3d7;
      }
    </style>
  </defs>
  <path class="cls-1" d="m32.64,40.13c-2.1,3.1-5.65,5.14-9.68,5.14-6.43,0-11.65-5.22-11.65-11.65s11.65-25,11.65-25c0,0,1.12,1.78,2.67,4.43-.44.4-.81.88-1.09,1.44-.53,1.02-.88,2.28-1.04,3.79-.17,1.5-.25,3.24-.25,5.2v7.68c0,2.02.22,3.71.68,5.06.46,1.35,1.24,2.37,2.36,3.04,1.11.67,2.65,1.01,4.62,1.01.62,0,1.2-.04,1.73-.14Z"/>
  <path d="m37.82,26.16c-.32-1.25-.9-2.18-1.75-2.81-.84-.63-2.05-.95-3.62-.95-.61,0-1.15.1-1.61.29-.12.05-.24.11-.35.17-.54.31-.95.71-1.21,1.22v-5.69c0-.66.12-1.16.37-1.51.24-.35.68-.52,1.32-.52.46,0,.79.15.98.46.2.32.32.71.37,1.18.04.47.07.95.07,1.42v.58h5.46v-3.06c0-1.24-.31-2.27-.95-3.09-.63-.82-1.46-1.44-2.5-1.85-1.03-.42-2.14-.62-3.33-.62-1.74,0-3.14.26-4.18.79-.47.24-.9.53-1.26.88-.44.4-.81.88-1.09,1.44-.53,1.02-.88,2.28-1.04,3.79-.17,1.5-.25,3.24-.25,5.2v7.68c0,2.02.22,3.71.68,5.06.46,1.35,1.24,2.37,2.36,3.04,1.11.67,2.65,1.01,4.62,1.01.62,0,1.2-.04,1.73-.14,1.05-.17,1.94-.52,2.66-1.04,1.08-.78,1.85-1.88,2.31-3.3.46-1.41.69-3.06.69-4.96s-.16-3.42-.48-4.67Zm-5.74,5.87c0,.88-.06,1.6-.19,2.17-.13.56-.53.84-1.19.84-.95,0-1.42-.7-1.42-2.09v-3.52c0-1.34.5-2.01,1.5-2.01.87,0,1.3.77,1.3,2.32v2.29Z"/>
</svg>