<?xml version="1.0" encoding="UTF-8"?>
<svg id="Layer_1" data-name="Layer 1" xmlns="http://www.w3.org/2000/svg" viewBox="0 0 50 50">
  <defs>
    <style>
      .cls-1 {
        fill: #00a3d7;
      }
    </style>
  </defs>
  <path class="cls-1" d="m32.55,40.26c-2.11,3.02-5.62,5.01-9.59,5.01-6.43,0-11.65-5.22-11.65-11.65s11.65-25,11.65-25c0,0,.73,1.16,1.82,3h-1.03v15.09h5.2c0-1.56.54-2.34,1.62-2.34.45,0,.78.15.98.45.2.3.34.68.39,1.13.06.45.09.91.09,1.37v5.58c0,.64-.09,1.17-.29,1.59-.19.41-.59.62-1.21.62-.46,0-.8-.15-1.01-.45-.22-.3-.35-.69-.41-1.16-.06-.48-.09-.97-.09-1.47v-2.44h-5.9v4.23c0,2.23.69,3.89,2.07,4.97s3.16,1.62,5.34,1.62c.74,0,1.42-.05,2.02-.15Z"/>
  <path d="m38.13,29.24c0,1.71-.09,3.25-.27,4.62s-.53,2.54-1.05,3.52c-.52.98-1.28,1.73-2.29,2.25-.55.29-1.21.5-1.97.63-.6.1-1.28.15-2.02.15-2.18,0-3.96-.54-5.34-1.62s-2.07-2.74-2.07-4.97v-4.23h5.9v2.44c0,.5.03.99.09,1.47.06.47.19.86.41,1.16.21.3.55.45,1.01.45.62,0,1.02-.21,1.21-.62.2-.42.29-.95.29-1.59v-5.58c0-.46-.03-.92-.09-1.37-.05-.45-.19-.83-.39-1.13-.2-.3-.53-.45-.98-.45-1.08,0-1.62.78-1.62,2.34h-5.2v-15.09h13.52v5.32h-8.14v4c.16-.19.34-.37.56-.54.17-.13.37-.26.58-.38.48-.26,1.04-.39,1.68-.39,1.29,0,2.34.25,3.15.74.82.5,1.44,1.18,1.87,2.07.44.88.74,1.9.91,3.06.16,1.16.25,2.41.25,3.74Z"/>
</svg>